<svg width="172" height="69" viewBox="0 0 172 69" fill="none" xmlns="http://www.w3.org/2000/svg">
<path d="M33.3081 65.0367L24.2492 67.2167C24.4695 66.1874 24.5838 65.1501 24.5838 64.0884C24.5838 62.111 32.0102 40.8475 31.2663 39.0699C30.3618 36.9088 29.12 35.5121 27.5122 34.8961L26.8919 36.9141C26.3869 38.557 17.7284 61.1304 16.4961 65.8633L7.43719 68.0757C8.47364 64.2748 17.4621 40.965 18.8124 36.9141C19.8367 33.8414 21.3505 30.1793 23.3255 25.9164C24.8434 22.6585 27.145 18.2822 30.238 12.7874L31.1439 12.6982C32.9638 12.4876 35.0531 12.3173 37.4116 12.1714C35.7386 15.1944 33.4861 19.7814 30.6706 25.9164C30.6052 26.0623 30.3441 26.7107 29.8789 27.8697C34.3268 26.0137 38.5869 22.9097 42.6674 18.5577C44.471 16.6288 45.9237 14.7082 47.0255 12.7874L48.0048 12.6982C49.8003 12.4876 51.8732 12.3173 54.2155 12.1714C51.9222 17.3663 48.0048 22.2289 42.4553 26.7755C39.6315 29.1015 36.6445 30.8358 33.4861 31.9704C35.5265 32.9996 37.3391 34.6443 38.9133 36.9141C40.5708 39.3042 33.5937 60.9764 33.5937 63.1564C33.5937 63.7481 33.4958 64.3721 33.3081 65.0367ZM64.3009 14.2327C63.4685 15.3755 61.765 18.1373 59.1593 22.4991L57.0048 26.1056L61.8607 26.0165L62.9625 26.8675C63.8846 24.8738 64.3499 21.2105 64.3499 15.878C64.3499 15.0675 64.3336 14.5245 64.3009 14.2327ZM61.8363 31.3573L54.5646 31.7139C53.0875 34.0722 51.7245 37.1439 50.4759 40.9204L41.417 43.1329C41.67 42.1523 42.8751 39.5615 44.959 35.3446L47.1298 30.952C49.1816 26.8003 52.4299 21.705 56.8172 15.6347C59.2361 12.2879 61.6077 9.31335 63.9663 6.73614C65.3538 6.6875 67.4104 6.59028 70.1361 6.44442L70.3484 9.48353C70.509 11.7837 70.5606 13.9896 70.5606 16.113C70.5606 20.2786 70.3295 24.167 69.6301 27.7427C69.5042 28.3867 68.9386 30.943 68.1938 35.4905C67.886 37.3697 67.5899 38.9025 67.2879 40.0939L59.481 40.0505C60.1177 38.0082 60.0653 36.5928 61.8363 31.3573ZM119.684 3.83079L116.167 19.0752C116.081 19.4487 115.647 21.1954 114.926 24.3187L113.327 31.2479C112.693 33.9915 112.102 36.694 111.629 39.3684L101.366 37.7813C102.149 34.9124 102.652 35.5486 104.284 30.5671C104.773 29.0733 105.595 26.4492 106.724 22.6816C107.252 20.9221 108.038 18.6131 109.091 15.7443C107.067 16.4573 103.975 20.3078 99.8117 27.2848C98.2542 29.8951 96.7431 33.6468 95.274 38.5419L86.2151 40.7219C86.2723 40.3895 86.305 39.879 86.305 39.182C86.305 35.7782 85.8714 31.2654 85.0399 25.6477C84.7127 23.4367 84.4442 22.325 84.1993 22.325L81.0491 29.8053C79.6211 33.1962 78.7477 36.378 78.462 39.3684L69.4032 41.5809C70.456 37.7151 71.6335 33.7906 72.9697 29.8053C73.9837 26.7804 75.4976 23.1219 77.4827 18.8076C78.3539 16.914 79.6055 14.5548 81.1227 11.6677C81.2647 11.3973 81.2613 11.149 81.2613 10.9707C81.2613 10.452 81.0463 9.62922 80.6412 8.50707C80.116 7.05213 79.8413 6.2135 79.7761 5.98659L88.5575 4.0172C89.6102 7.51828 90.5329 10.7437 91.3323 13.7019C92.4752 17.9321 93.095 21.547 93.1929 24.5536C96.2861 18.1593 100.105 13.3879 104.455 9.97383C106.18 8.62047 107.803 7.3356 109.548 6.41597C110.863 5.72281 112.291 5.23551 113.8 4.89243C115.784 4.44144 116.981 4.16278 117.415 4.09016C118.238 3.95233 118.999 3.87937 119.684 3.83079ZM148.979 1.95993C148.359 3.45112 147.29 6.60374 145.788 11.4259C144.279 16.2399 143.12 19.7977 142.303 22.0912C140.043 28.445 137.464 32.8377 134.559 35.2689C132.102 37.3112 128.919 38.3324 124.994 38.3324C123.019 38.3324 121.06 37.6434 119.118 36.2658C116.327 34.2397 114.931 31.2735 114.931 27.3672C114.931 25.7381 115.168 23.9795 115.649 22.0912C117.159 16.2074 119.542 9.80495 122.798 2.88391L130.641 1.95993C128.903 6.10943 127.777 8.81621 127.271 10.0805C125.32 14.9755 123.965 18.9791 123.206 22.0912C122.929 23.2663 122.798 24.4172 122.798 25.5355C122.798 29.0204 124.055 30.7628 126.577 30.7628C129.442 30.7628 131.963 27.8697 134.126 22.0912L141.659 1.95993H148.979ZM147.243 31.6624L148.059 28.9557C148.246 28.3396 148.654 27.0835 149.275 25.1791C150.23 22.3343 151.739 18.6712 153.796 14.1894C154.302 13.0144 155.11 11.361 156.212 9.22959C154.473 9.51328 151.837 9.90217 148.295 10.3885L150.401 3.26471C152.898 3.04589 156.048 2.78652 159.843 2.48671C163.81 2.17869 167.295 2.00851 170.29 1.95993L168.094 8.87294C165.034 8.87294 162.61 8.89726 160.823 8.96219L162.904 10.0805C162.422 10.9963 161.818 12.366 161.084 14.1894C160.178 16.4181 158.921 20.0814 157.305 25.1791C156.734 27.0673 156.187 29.0204 155.657 31.0465C156.171 31.0141 157.052 30.9655 158.309 30.9007L162.023 30.7628L159.819 37.6921C156.089 37.6921 153.657 37.7246 152.531 37.7894C150.695 37.919 146.524 38.3971 140.02 39.2401L142.126 32.0919L144.517 31.857C145.202 31.8084 146.108 31.7435 147.243 31.6624Z" fill="#2C2053"/>
<path d="M65.4092 41.5368L63.7166 49.8666C63.673 50.0704 63.472 51.0271 63.1177 52.7322L62.348 56.5186C62.0324 58.0156 61.7608 59.4939 61.5418 60.9532L55.6354 62.7232C56.02 61.1539 56.6156 59.0064 57.4265 56.2762C57.6756 55.4591 58.0813 54.0215 58.6392 51.9587C58.9023 50.9958 59.2947 49.7302 59.8257 48.1571C58.7365 48.573 57.1114 50.7076 54.9504 54.5565C54.1409 55.9959 53.3745 58.0552 52.6466 60.7348L47.7573 62.0467C47.7836 61.8655 47.794 61.5876 47.7841 61.209C47.7354 59.3601 47.4403 56.9143 46.9035 53.8753C46.6991 52.6782 46.5324 52.0789 46.3995 52.0824L44.7952 56.1899C44.0634 58.0502 43.6391 59.7924 43.5267 61.4208L38.6378 62.7502C39.1544 60.6357 39.7411 58.4882 40.4067 56.3038C40.9176 54.6474 41.6808 52.6366 42.7008 50.2667C43.1436 49.2243 43.7657 47.9131 44.5759 46.3371C44.6205 46.1775 44.6439 46.0534 44.6413 45.9566C44.6339 45.6748 44.5112 45.2286 44.2692 44.6271C43.9691 43.842 43.802 43.3927 43.7632 43.2702L48.5049 42.0768C49.1266 43.9637 49.6738 45.7027 50.1505 47.2982C50.8316 49.5798 51.2201 51.5345 51.3162 53.1663C52.905 49.6494 54.8747 46.9597 57.2254 45.0882C58.1046 44.2858 59.0097 43.6146 59.9405 43.0839C60.6489 42.6955 61.4131 42.4026 62.2283 42.1964C63.299 41.9219 63.9469 41.7598 64.1807 41.7097C64.6264 41.6276 65.0376 41.5729 65.4092 41.5368ZM85.8999 45.6876L84.8023 46.4518C85.1931 47.4813 85.3983 48.3701 85.4178 49.1097C85.4318 49.6423 85.3715 50.3882 85.2326 51.3435C84.7932 54.3678 83.7303 56.7918 82.0438 58.6152C80.198 60.6189 77.8033 61.6547 74.8597 61.731C72.4527 61.7934 70.5559 61.0189 69.1605 59.4033C67.8746 57.9037 67.1972 55.9346 67.133 53.4915C67.1192 52.9676 67.1355 52.4076 67.1774 51.8119C67.4235 49.1934 68.5167 46.9096 70.4573 44.9651C72.4504 42.9884 74.7566 41.9639 77.3809 41.8958C81.3439 41.793 84.1849 43.0583 85.8999 45.6876ZM80.8788 51.9366C80.94 51.565 80.9677 51.2646 80.9618 51.0446C80.9355 50.0455 80.6095 49.2874 79.9926 48.7703L80.7832 48.3006C80.045 46.888 78.8383 46.2056 77.1584 46.2492C75.4516 46.2936 74.043 46.8763 72.9281 47.9979C71.8827 49.0688 71.2498 50.4641 71.0378 52.192C70.9862 52.5897 70.964 52.9251 70.9711 53.198C71.0051 54.4878 71.4154 55.5829 72.2021 56.4831C73.0345 57.435 74.0844 57.8923 75.3567 57.8592C76.8904 57.8195 78.1604 57.1919 79.1661 55.9675C80.0647 54.8782 80.637 53.5331 80.8788 51.9366ZM94.2682 60.1569L89.3923 61.4728C89.5041 61.1659 89.5745 58.9484 89.5944 54.8204C89.597 51.2081 89.5527 47.8439 89.4708 44.7316C89.4419 43.6311 89.4066 42.9624 89.3695 42.7343L94.0934 41.5414C94.1511 41.7116 94.1835 42.0985 94.1993 42.697C94.2513 44.6781 94.0667 48.4491 93.6411 54.0194C94.6627 52.0458 95.811 50.0029 97.0816 47.8908C98.7395 45.143 100.043 43.2679 100.988 42.2654L101.519 42.1987C102.491 42.0635 103.614 41.9374 104.885 41.8296C104.09 42.828 103.231 44.2115 102.305 45.9711C101.803 46.9402 101.056 48.3868 100.069 50.3153L97.3546 55.3943C96.1302 57.5846 95.1029 59.1705 94.2682 60.1569ZM106.9 57.2742L107.305 55.7923C107.398 55.4552 107.601 54.7671 107.911 53.7239C108.389 52.1654 109.157 50.1543 110.21 47.691C110.468 47.0457 110.883 46.1362 111.451 44.9629C110.511 45.1415 109.085 45.39 107.168 45.704L108.209 41.805C109.563 41.6509 111.27 41.4656 113.327 41.2493C115.477 41.0261 117.368 40.8845 118.994 40.816L117.9 44.6018C116.238 44.645 114.922 44.6923 113.952 44.7527L115.098 45.3308C114.85 45.8351 114.541 46.5874 114.168 47.5883C113.708 48.8117 113.078 50.8191 112.273 53.6108C111.99 54.6445 111.721 55.7131 111.461 56.821C111.74 56.7962 112.218 56.7573 112.9 56.7044L114.915 56.5773L113.817 60.372C111.791 60.4247 110.471 60.4766 109.86 60.5276C108.864 60.6239 106.606 60.9424 103.085 61.4919L104.127 57.5796L105.422 57.4183C105.794 57.3822 106.285 57.3342 106.9 57.2742ZM135.079 40.3986L133.981 44.1845L132.479 44.2235C129.681 44.2961 127.493 44.4146 125.91 44.5877L126.742 45.0286C126.616 45.3138 126.317 46.066 125.839 47.2855C125.709 47.5972 125.564 47.9667 125.398 48.3938L130.991 48.0415L129.901 51.4398L124.382 51.7768C124.018 52.9535 123.614 54.4529 123.178 56.2703C124.679 56.1478 126.928 55.9748 129.921 55.7605L128.787 59.521C128.006 59.5325 127.332 59.5455 126.761 59.5604L125.994 59.5803C124.088 59.6299 121.294 60.0018 117.613 60.7008L117.612 60.6611C117.609 60.5425 117.816 59.6649 118.235 58.0374C118.722 56.1569 119.16 54.6214 119.555 53.4219C120.212 51.4357 120.971 49.4249 121.827 47.3896C122.153 46.6234 122.522 45.8253 122.931 44.9999C122.016 45.1249 121.163 45.2483 120.367 45.3614L121.409 41.4625C123.205 41.2792 125.356 41.0825 127.852 40.8724C129.34 40.7456 131.749 40.5862 135.079 40.3986ZM160.48 43.8083C159.772 43.8531 159.161 43.9357 158.655 44.0627C157.38 44.3826 140.408 44.9284 139.892 45.683C139.716 45.9418 139.631 46.214 139.639 46.4868C139.651 46.9623 139.915 47.5413 140.425 48.2373C141.111 49.1622 141.507 49.7379 141.615 49.9597C142.259 51.3437 142.59 52.4321 142.61 53.2243L142.619 53.5326C142.488 55.4917 141.406 57.1761 139.376 58.5856C138.261 59.3721 136.462 60.106 133.973 60.7916L132.938 56.0038C133.879 55.8605 134.725 55.6492 135.481 55.3697C137.256 54.7156 138.134 53.8735 138.107 52.8523L138.103 52.685C138.089 52.17 137.905 51.5932 137.56 50.9547C137.372 50.6953 137.039 50.206 136.559 49.4962C135.715 48.2451 135.278 47.1507 135.253 46.213C135.2 44.2101 135.915 42.7487 137.4 41.8361C138.543 41.1343 156.347 40.4663 158.663 39.8293L160.48 43.8083Z" fill="#2C2053"/>
<path d="M30.4604 65.0367L21.4015 67.2167C21.6218 66.1874 21.7361 65.1501 21.7361 64.0884C21.7361 62.111 29.1626 40.8475 28.4186 39.0699C27.5142 36.9088 26.2723 35.5121 24.6645 34.8961L24.0442 36.9141C23.5392 38.557 14.8807 61.1304 13.6484 65.8633L4.58951 68.0757C5.62595 64.2748 14.6144 40.965 15.9647 36.9141C16.9891 33.8414 18.5028 30.1793 20.4778 25.9164C21.9957 22.6585 24.2973 18.2822 27.3903 12.7874L28.2962 12.6982C30.1161 12.4876 32.2054 12.3173 34.5639 12.1714C32.8909 15.1944 30.6385 19.7814 27.8229 25.9164C27.7575 26.0623 27.4964 26.7107 27.0312 27.8697C31.4791 26.0137 35.7392 22.9097 39.8197 18.5577C41.6233 16.6288 43.0761 14.7082 44.1778 12.7874L45.1571 12.6982C46.9527 12.4876 49.0255 12.3173 51.3678 12.1714C49.0745 17.3663 45.1571 22.2289 39.6076 26.7755C36.7838 29.1015 33.7968 30.8358 30.6385 31.9704C32.6788 32.9996 34.4914 34.6443 36.0656 36.9141C37.7231 39.3042 30.746 60.9764 30.746 63.1564C30.746 63.7481 30.6481 64.3721 30.4604 65.0367ZM61.4532 14.2327C60.6208 15.3755 58.9173 18.1373 56.3116 22.4991L54.1571 26.1056L59.0131 26.0165L60.1148 26.8675C61.037 24.8738 61.5022 21.2105 61.5022 15.878C61.5022 15.0675 61.4859 14.5245 61.4532 14.2327ZM58.9886 31.3573L51.7169 31.7139C50.2399 34.0722 48.8768 37.1439 47.6282 40.9204L38.5693 43.1329C38.8223 42.1523 40.0274 39.5615 42.1113 35.3446L44.2822 30.952C46.3339 26.8003 49.5822 21.705 53.9695 15.6347C56.3885 12.2879 58.7601 9.31335 61.1186 6.73614C62.5061 6.6875 64.5627 6.59028 67.2884 6.44442L67.5007 9.48353C67.6614 11.7837 67.7129 13.9896 67.7129 16.113C67.7129 20.2786 67.4818 24.167 66.7824 27.7427C66.6565 28.3867 66.0909 30.943 65.3461 35.4905C65.0383 37.3697 64.7422 38.9025 64.4402 40.0939L56.6334 40.0505C57.27 38.0082 57.2176 36.5928 58.9886 31.3573ZM116.836 3.83079L113.319 19.0752C113.233 19.4487 112.799 21.1954 112.078 24.3187L110.479 31.2479C109.846 33.9915 109.255 36.694 108.781 39.3684L98.518 37.7813C99.3015 34.9124 99.8041 35.5486 101.436 30.5671C101.926 29.0733 102.747 26.4492 103.877 22.6816C104.404 20.9221 105.19 18.6131 106.243 15.7443C104.219 16.4573 101.127 20.3078 96.964 27.2848C95.4065 29.8951 93.8955 33.6468 92.4263 38.5419L83.3675 40.7219C83.4246 40.3895 83.4573 39.879 83.4573 39.182C83.4573 35.7782 83.0237 31.2654 82.1922 25.6477C81.865 23.4367 81.5965 22.325 81.3516 22.325L78.2014 29.8053C76.7734 33.1962 75.9 36.378 75.6144 39.3684L66.5555 41.5809C67.6083 37.7151 68.7858 33.7906 70.122 29.8053C71.136 26.7804 72.6499 23.1219 74.635 18.8076C75.5063 16.914 76.7578 14.5548 78.275 11.6677C78.417 11.3973 78.4136 11.149 78.4136 10.9707C78.4136 10.452 78.1986 9.62922 77.7935 8.50707C77.2683 7.05213 76.9936 6.2135 76.9284 5.98659L85.7098 4.0172C86.7625 7.51828 87.6852 10.7437 88.4846 13.7019C89.6275 17.9321 90.2474 21.547 90.3453 24.5536C93.4384 18.1593 97.2575 13.3879 101.608 9.97383C103.332 8.62047 104.955 7.3356 106.7 6.41597C108.016 5.72281 109.443 5.23551 110.952 4.89243C112.936 4.44144 114.134 4.16278 114.568 4.09016C115.39 3.95233 116.151 3.87937 116.836 3.83079ZM146.132 1.95993C145.511 3.45112 144.442 6.60374 142.941 11.4259C141.431 16.2399 140.272 19.7977 139.456 22.0912C137.195 28.445 134.616 32.8377 131.711 35.2689C129.254 37.3112 126.072 38.3324 122.146 38.3324C120.171 38.3324 118.212 37.6434 116.27 36.2658C113.479 34.2397 112.083 31.2735 112.083 27.3672C112.083 25.7381 112.32 23.9795 112.802 22.0912C114.311 16.2074 116.694 9.80495 119.951 2.88391L127.794 1.95993C126.055 6.10943 124.929 8.81621 124.423 10.0805C122.472 14.9755 121.118 18.9791 120.359 22.0912C120.081 23.2663 119.951 24.4172 119.951 25.5355C119.951 29.0204 121.208 30.7628 123.729 30.7628C126.594 30.7628 129.116 27.8697 131.278 22.0912L138.811 1.95993H146.132ZM144.395 31.6624L145.211 28.9557C145.399 28.3396 145.807 27.0835 146.427 25.1791C147.382 22.3343 148.892 18.6712 150.948 14.1894C151.454 13.0144 152.262 11.361 153.364 9.22959C151.626 9.51328 148.99 9.90217 145.448 10.3885L147.553 3.26471C150.051 3.04589 153.201 2.78652 156.996 2.48671C160.962 2.17869 164.447 2.00851 167.442 1.95993L165.247 8.87294C162.186 8.87294 159.762 8.89726 157.975 8.96219L160.056 10.0805C159.575 10.9963 158.971 12.366 158.236 14.1894C157.33 16.4181 156.074 20.0814 154.458 25.1791C153.886 27.0673 153.339 29.0204 152.809 31.0465C153.323 31.0141 154.205 30.9655 155.461 30.9007L159.175 30.7628L156.971 37.6921C153.242 37.6921 150.81 37.7246 149.683 37.7894C147.847 37.919 143.677 38.3971 137.172 39.2401L139.278 32.0919L141.669 31.857C142.355 31.8084 143.26 31.7435 144.395 31.6624Z" fill="#8257E5"/>
<path d="M62.5616 41.5368L60.8689 49.8666C60.8254 50.0704 60.6243 51.0271 60.27 52.7322L59.5003 56.5186C59.1848 58.0156 58.9132 59.4939 58.6942 60.9532L52.7877 62.7232C53.1724 61.1539 53.7679 59.0064 54.5789 56.2762C54.8279 55.4591 55.2337 54.0215 55.7916 51.9587C56.0546 50.9958 56.4471 49.7302 56.9781 48.1571C55.8889 48.573 54.2638 50.7076 52.1027 54.5565C51.2932 55.9959 50.5269 58.0552 49.799 60.7348L44.9096 62.0467C44.9359 61.8655 44.9463 61.5876 44.9365 61.209C44.8878 59.3601 44.5927 56.9143 44.0558 53.8753C43.8514 52.6782 43.6848 52.0789 43.5518 52.0824L41.9475 56.1899C41.2158 58.0502 40.7914 59.7924 40.6791 61.4208L35.7901 62.7502C36.3067 60.6357 36.8935 58.4882 37.5591 56.3038C38.0699 54.6474 38.8331 52.6366 39.8532 50.2667C40.296 49.2243 40.918 47.9131 41.7283 46.3371C41.7728 46.1775 41.7963 46.0534 41.7936 45.9566C41.7862 45.6748 41.6636 45.2286 41.4215 44.6271C41.1214 43.842 40.9543 43.3927 40.9155 43.2702L45.6573 42.0768C46.279 43.9637 46.8261 45.7027 47.3028 47.2982C47.9839 49.5798 48.3725 51.5345 48.4686 53.1663C50.0573 49.6494 52.0271 46.9597 54.3777 45.0882C55.257 44.2858 56.162 43.6146 57.0929 43.0839C57.8012 42.6955 58.5654 42.4026 59.3806 42.1964C60.4513 41.9219 61.0992 41.7598 61.3331 41.7097C61.7787 41.6276 62.1899 41.5729 62.5616 41.5368ZM83.0523 45.6876L81.9546 46.4518C82.3455 47.4813 82.5507 48.3701 82.5701 49.1097C82.5842 49.6423 82.5239 50.3882 82.385 51.3435C81.9455 54.3678 80.8826 56.7918 79.1962 58.6152C77.3504 60.6189 74.9556 61.6547 72.0121 61.731C69.6051 61.7934 67.7082 61.0189 66.3128 59.4033C65.0269 57.9037 64.3496 55.9346 64.2854 53.4915C64.2715 52.9676 64.2878 52.4076 64.3297 51.8119C64.5758 49.1934 65.6691 46.9096 67.6096 44.9651C69.6027 42.9884 71.909 41.9639 74.5333 41.8958C78.4962 41.793 81.3373 43.0583 83.0523 45.6876ZM78.0311 51.9366C78.0923 51.565 78.12 51.2646 78.1142 51.0446C78.0879 50.0455 77.7619 49.2874 77.1449 48.7703L77.9355 48.3006C77.1974 46.888 75.9907 46.2056 74.3107 46.2492C72.604 46.2936 71.1954 46.8763 70.0805 47.9979C69.035 49.0688 68.4021 50.4641 68.1901 52.192C68.1386 52.5897 68.1163 52.9251 68.1234 53.198C68.1574 54.4878 68.5677 55.5829 69.3544 56.4831C70.1869 57.435 71.2368 57.8923 72.5091 57.8592C74.0428 57.8195 75.3128 57.1919 76.3185 55.9675C77.217 54.8782 77.7893 53.5331 78.0311 51.9366ZM91.4206 60.1569L86.5446 61.4728C86.6565 61.1659 86.7268 58.9484 86.7468 54.8204C86.7493 51.2081 86.7051 47.8439 86.6232 44.7316C86.5943 43.6311 86.559 42.9624 86.5219 42.7343L91.2458 41.5414C91.3035 41.7116 91.3359 42.0985 91.3516 42.697C91.4037 44.6781 91.219 48.4491 90.7934 54.0194C91.815 52.0458 92.9633 50.0029 94.234 47.8908C95.8918 45.143 97.1954 43.2679 98.1405 42.2654L98.671 42.1987C99.6433 42.0635 100.767 41.9374 102.037 41.8296C101.243 42.828 100.383 44.2115 99.4578 45.9711C98.9555 46.9402 98.2084 48.3868 97.2212 50.3153L94.5069 55.3943C93.2826 57.5846 92.2553 59.1705 91.4206 60.1569ZM104.052 57.2742L104.457 55.7923C104.55 55.4552 104.754 54.7671 105.063 53.7239C105.541 52.1654 106.309 50.1543 107.362 47.691C107.62 47.0457 108.035 46.1362 108.603 44.9629C107.663 45.1415 106.237 45.39 104.32 45.704L105.362 41.805C106.715 41.6509 108.423 41.4656 110.48 41.2493C112.63 41.0261 114.52 40.8845 116.146 40.816L115.053 44.6018C113.39 44.645 112.074 44.6923 111.104 44.7527L112.25 45.3308C112.002 45.8351 111.694 46.5874 111.321 47.5883C110.86 48.8117 110.23 50.8191 109.425 53.6108C109.142 54.6445 108.873 55.7131 108.614 56.821C108.892 56.7962 109.371 56.7573 110.052 56.7044L112.067 56.5773L110.97 60.372C108.944 60.4247 107.623 60.4766 107.012 60.5276C106.017 60.6239 103.758 60.9424 100.237 61.4919L101.279 57.5796L102.574 57.4183C102.946 57.3822 103.437 57.3342 104.052 57.2742ZM132.232 40.3986L131.134 44.1845L129.631 44.2235C126.834 44.2961 124.645 44.4146 123.062 44.5877L123.894 45.0286C123.769 45.3138 123.469 46.066 122.991 47.2855C122.862 47.5972 122.716 47.9667 122.55 48.3938L128.143 48.0415L127.053 51.4398L121.535 51.7768C121.171 52.9535 120.767 54.4529 120.331 56.2703C121.831 56.1478 124.08 55.9748 127.073 55.7605L125.939 59.521C125.159 59.5325 124.485 59.5455 123.913 59.5604L123.146 59.5803C121.24 59.6299 118.446 60.0018 114.765 60.7008L114.764 60.6611C114.761 60.5425 114.969 59.6649 115.387 58.0374C115.874 56.1569 116.313 54.6214 116.707 53.4219C117.365 51.4357 118.123 49.4249 118.979 47.3896C119.305 46.6234 119.675 45.8253 120.083 44.9999C119.168 45.1249 118.315 45.2483 117.52 45.3614L118.562 41.4625C120.358 41.2792 122.508 41.0825 125.005 40.8724C126.492 40.7456 128.901 40.5862 132.232 40.3986ZM157.633 43.8083C156.924 43.8531 156.313 43.9357 155.807 44.0627C154.533 44.3826 137.56 44.9284 137.045 45.683C136.868 45.9418 136.784 46.214 136.791 46.4868C136.803 46.9623 137.067 47.5413 137.578 48.2373C138.263 49.1622 138.66 49.7379 138.768 49.9597C139.412 51.3437 139.742 52.4321 139.763 53.2243L139.771 53.5326C139.641 55.4917 138.558 57.1761 136.528 58.5856C135.413 59.3721 133.614 60.106 131.126 60.7916L130.09 56.0038C131.031 55.8605 131.878 55.6492 132.633 55.3697C134.408 54.7156 135.286 53.8735 135.259 52.8523L135.255 52.685C135.242 52.17 135.058 51.5932 134.713 50.9547C134.524 50.6953 134.192 50.206 133.712 49.4962C132.867 48.2451 132.43 47.1507 132.406 46.213C132.353 44.2101 133.067 42.7487 134.553 41.8361C135.695 41.1343 153.499 40.4663 155.816 39.8293L157.633 43.8083Z" fill="#E3E1E6"/>
</svg>
