<svg width="45" height="45" viewBox="0 0 45 45" fill="none" xmlns="http://www.w3.org/2000/svg">
<g filter="url(#filter0_d)">
<rect width="43" height="43" rx="6" fill="#0A080C"/>
</g>
<g clip-path="url(#clip0)">
<path d="M18.4174 32.7042L14.4154 33.6836C14.5127 33.2212 14.5632 32.7552 14.5632 32.2782C14.5632 31.3898 17.8441 21.8366 17.5154 21.038C17.1159 20.067 16.5672 19.4395 15.8569 19.1628L15.5829 20.0694C15.3598 20.8075 11.5346 30.9492 10.9902 33.0756L6.98808 34.0696C7.44597 32.3619 11.4169 21.8894 12.0135 20.0694C12.466 18.6889 13.1348 17.0437 14.0073 15.1285C14.6779 13.6647 15.6947 11.6986 17.0612 9.22989L17.4613 9.18982C18.2653 9.0952 19.1884 9.01869 20.2303 8.95316C19.4912 10.3113 18.4961 12.3721 17.2523 15.1285C17.2234 15.194 17.108 15.4853 16.9025 16.006C18.8675 15.1721 20.7495 13.7776 22.5523 11.8224C23.3491 10.9557 23.9909 10.0929 24.4776 9.22989L24.9103 9.18982C25.7035 9.0952 26.6193 9.01869 27.6541 8.95316C26.6409 11.2871 24.9103 13.4717 22.4586 15.5144C21.2111 16.5594 19.8914 17.3386 18.4961 17.8484C19.3975 18.3108 20.1983 19.0497 20.8937 20.0694C21.626 21.1432 18.5437 30.88 18.5437 31.8594C18.5437 32.1253 18.5004 32.4056 18.4174 32.7042V32.7042Z" fill="#291284"/>
<path d="M37.2673 18.3847L36.2243 23.6041C36.1975 23.7318 36.0737 24.3313 35.8554 25.3997L35.3811 27.7723C35.1867 28.7103 35.0193 29.6366 34.8844 30.551L31.2451 31.66C31.4821 30.6767 31.8491 29.3311 32.3487 27.6203C32.5022 27.1084 32.7522 26.2075 33.096 24.915C33.258 24.3117 33.4998 23.5187 33.827 22.533C33.1559 22.7935 32.1546 24.1311 30.8231 26.5428C30.3243 27.4447 29.8521 28.7351 29.4036 30.4141L26.391 31.2362C26.4072 31.1226 26.4136 30.9484 26.4076 30.7112C26.3775 29.5527 26.1957 28.0202 25.865 26.116C25.739 25.3658 25.6363 24.9904 25.5544 24.9926L24.566 27.5663C24.1151 28.7319 23.8536 29.8236 23.7844 30.8439L20.772 31.677C21.0904 30.352 21.4519 29.0064 21.862 27.6377C22.1767 26.5998 22.647 25.3398 23.2755 23.8548C23.5484 23.2017 23.9316 22.3801 24.4308 21.3926C24.4583 21.2925 24.4727 21.2148 24.4711 21.1541C24.4665 20.9776 24.391 20.698 24.2418 20.3211C24.0569 19.8291 23.954 19.5476 23.9301 19.4709L26.8517 18.7231C27.2348 19.9054 27.5719 20.995 27.8656 21.9948C28.2853 23.4244 28.5247 24.6492 28.5839 25.6717C29.5628 23.468 30.7765 21.7827 32.2248 20.61C32.7666 20.1072 33.3242 19.6866 33.8977 19.3541C34.3342 19.1107 34.805 18.9272 35.3073 18.798C35.967 18.626 36.3662 18.5244 36.5103 18.4931C36.785 18.4416 37.0383 18.4073 37.2673 18.3847V18.3847Z" fill="#291284"/>
</g>
<g clip-path="url(#clip1)">
<path d="M17.1594 32.7042L13.1573 33.6836C13.2546 33.2212 13.3052 32.7552 13.3052 32.2782C13.3052 31.3898 16.586 21.8366 16.2574 21.038C15.8578 20.067 15.3092 19.4395 14.5989 19.1628L14.3248 20.0694C14.1017 20.8075 10.2765 30.9492 9.73211 33.0756L5.73003 34.0696C6.18791 32.3619 10.1589 21.8894 10.7554 20.0694C11.208 18.6889 11.8767 17.0437 12.7492 15.1285C13.4198 13.6647 14.4366 11.6986 15.8031 9.22989L16.2033 9.18982C17.0073 9.0952 17.9303 9.01869 18.9723 8.95316C18.2332 10.3113 17.2381 12.3721 15.9942 15.1285C15.9653 15.194 15.85 15.4853 15.6445 16.006C17.6095 15.1721 19.4915 13.7776 21.2942 11.8224C22.091 10.9557 22.7328 10.0929 23.2196 9.22989L23.6522 9.18982C24.4454 9.0952 25.3612 9.01869 26.396 8.95316C25.3829 11.2871 23.6522 13.4717 21.2005 15.5144C19.953 16.5594 18.6334 17.3386 17.2381 17.8484C18.1395 18.3108 18.9403 19.0497 19.6357 20.0694C20.368 21.1432 17.2856 30.88 17.2856 31.8594C17.2856 32.1253 17.2423 32.4056 17.1594 32.7042V32.7042Z" fill="#8257E5"/>
<path d="M36.0092 18.3847L34.9663 23.6041C34.9395 23.7318 34.8156 24.3313 34.5973 25.3997L34.123 27.7723C33.9286 28.7103 33.7613 29.6366 33.6263 30.551L29.9871 31.66C30.2241 30.6767 30.591 29.3311 31.0907 27.6203C31.2441 27.1084 31.4941 26.2075 31.8379 24.915C32 24.3117 32.2418 23.5187 32.5689 22.533C31.8978 22.7935 30.8965 24.1311 29.565 26.5428C29.0662 27.4447 28.594 28.7351 28.1456 30.4141L25.133 31.2362C25.1492 31.1226 25.1556 30.9484 25.1495 30.7112C25.1195 29.5527 24.9377 28.0202 24.6069 26.116C24.481 25.3658 24.3783 24.9904 24.2964 24.9926L23.3079 27.5663C22.857 28.7319 22.5956 29.8236 22.5263 30.8439L19.514 31.677C19.8323 30.352 20.1938 29.0064 20.6039 27.6377C20.9187 26.5998 21.3889 25.3398 22.0174 23.8548C22.2903 23.2017 22.6735 22.3801 23.1728 21.3926C23.2002 21.2925 23.2147 21.2148 23.2131 21.1541C23.2085 20.9776 23.1329 20.698 22.9838 20.3211C22.7989 19.8291 22.6959 19.5476 22.672 19.4709L25.5936 18.7231C25.9767 19.9054 26.3138 20.995 26.6075 21.9948C27.0272 23.4244 27.2666 24.6492 27.3258 25.6717C28.3047 23.468 29.5184 21.7827 30.9667 20.61C31.5085 20.1072 32.0662 19.6866 32.6397 19.3541C33.0761 19.1107 33.547 18.9272 34.0493 18.798C34.709 18.626 35.1082 18.5244 35.2523 18.4931C35.5269 18.4416 35.7802 18.4073 36.0092 18.3847V18.3847Z" fill="white"/>
</g>
<defs>
<filter id="filter0_d" x="0" y="0" width="45" height="45" filterUnits="userSpaceOnUse" color-interpolation-filters="sRGB">
<feFlood flood-opacity="0" result="BackgroundImageFix"/>
<feColorMatrix in="SourceAlpha" type="matrix" values="0 0 0 0 0 0 0 0 0 0 0 0 0 0 0 0 0 0 127 0"/>
<feMorphology radius="2" operator="erode" in="SourceAlpha" result="effect1_dropShadow"/>
<feOffset dx="4" dy="4"/>
<feColorMatrix type="matrix" values="0 0 0 0 0.160784 0 0 0 0 0.0705882 0 0 0 0 0.517647 0 0 0 1 0"/>
<feBlend mode="normal" in2="BackgroundImageFix" result="effect1_dropShadow"/>
<feBlend mode="normal" in="SourceGraphic" in2="effect1_dropShadow" result="shape"/>
</filter>
<clipPath id="clip0">
<rect width="37.7419" height="31" fill="white" transform="translate(3.25806 6)"/>
</clipPath>
<clipPath id="clip1">
<rect width="37.7419" height="31" fill="white" transform="translate(2 6)"/>
</clipPath>
</defs>
</svg>
