<svg width="120" height="120" viewBox="0 0 120 120" fill="none" xmlns="http://www.w3.org/2000/svg">
<circle cx="60" cy="60" r="60" fill="#8257E5"/>
<g clip-path="url(#clip0)">
<path d="M93.1046 34.5135C92.3129 33.9947 91.266 34.0961 90.5988 34.7688L79.097 46.1605H40.903L29.4013 34.7688C28.7336 34.0982 27.6887 33.9989 26.8955 34.5135C26.1053 35.0359 25.792 36.0418 26.1422 36.9208L34.2437 52.8895C34.5472 53.6474 35.2787 54.1448 36.0943 54.1448H83.9063C84.7213 54.1448 85.4528 53.6479 85.7563 52.8895L93.8579 36.9208C94.2081 36.0418 93.8948 35.0359 93.1046 34.5135Z" fill="#FBF9FF"/>
<path d="M68.7937 70.113H75.4582L74.1301 58.1365H45.8716L44.5429 70.113H51.2064C52.576 68.8228 55.9321 66.1208 60 66.1208C64.0679 66.1208 67.4241 68.8228 68.7937 70.113Z" fill="#FBF9FF"/>
<path d="M63.9844 90.0738C68.7755 90.0738 73.4022 88.4744 77.178 85.6222L75.9007 74.1052H67.9688C67.4064 74.1052 66.8653 73.8634 66.4882 73.4445C66.4591 73.4112 63.434 70.113 60 70.113C56.5858 70.113 53.5446 73.4076 53.5156 73.4403C53.1384 73.8634 52.5973 74.1052 52.0313 74.1052H44.0999L42.8221 85.6222C46.5974 88.4744 51.224 90.0738 56.0157 90.0738H63.9844Z" fill="#FBF9FF"/>
<path d="M83.9058 94.1991H92.0074C92.6128 94.1991 93.1824 93.9241 93.5617 93.4526C93.9394 92.9786 94.0831 92.361 93.9529 91.77L86.3903 58.1365H78.1383L81.9255 92.4229C82.0386 93.435 82.8905 94.1991 83.9058 94.1991Z" fill="#FBF9FF"/>
<path d="M38.0745 92.4234L41.8618 58.137H33.6097L26.0472 91.77C25.9165 92.3605 26.0607 92.9786 26.4379 93.4526C26.8171 93.9241 27.3873 94.1991 27.9922 94.1991H36.0938C37.1096 94.1991 37.9614 93.4349 38.0745 92.4234Z" fill="#FBF9FF"/>
<path d="M58.0078 26.0665C56.9074 26.0665 56.0156 26.9601 56.0156 28.0626V42.1683H63.9844V28.0626C63.9844 26.9601 63.0921 26.0665 61.9922 26.0665H58.0078Z" fill="#FBF9FF"/>
<path d="M40.2182 39.8291L42.5528 42.1683H52.0313V30.6861C46.8978 31.876 42.6218 35.2657 40.2182 39.8291Z" fill="#FBF9FF"/>
<path d="M67.9688 42.1683H77.4468L79.7814 39.8291C77.3783 35.2657 73.1018 31.876 67.9688 30.6861V42.1683Z" fill="#FBF9FF"/>
</g>
<defs>
<clipPath id="clip0">
<rect width="68" height="68" fill="white" transform="translate(26 26)"/>
</clipPath>
</defs>
</svg>
